<?xml version="1.0" encoding="UTF-8" standalone="no"?>
<svg
   xmlns:dc="http://purl.org/dc/elements/1.1/"
   xmlns:cc="http://creativecommons.org/ns#"
   xmlns:rdf="http://www.w3.org/1999/02/22-rdf-syntax-ns#"
   xmlns:svg="http://www.w3.org/2000/svg"
   xmlns="http://www.w3.org/2000/svg"
   xmlns:sodipodi="http://sodipodi.sourceforge.net/DTD/sodipodi-0.dtd"
   xmlns:inkscape="http://www.inkscape.org/namespaces/inkscape"
   enable-background="new 0 0 24 24"
   viewBox="0 0 24 24"
   fill="black"
   width="48px"
   height="48px"
   version="1.1"
   id="svg14"
   sodipodi:docname="farthest_points.svg"
   inkscape:version="0.92.1 r15371">
  <metadata
     id="metadata20">
    <rdf:RDF>
      <cc:Work
         rdf:about="">
        <dc:format>image/svg+xml</dc:format>
        <dc:type
           rdf:resource="http://purl.org/dc/dcmitype/StillImage" />
      </cc:Work>
    </rdf:RDF>
  </metadata>
  <defs
     id="defs18" />
  <sodipodi:namedview
     pagecolor="#ffffff"
     bordercolor="#666666"
     borderopacity="1"
     objecttolerance="10"
     gridtolerance="10"
     guidetolerance="10"
     inkscape:pageopacity="0"
     inkscape:pageshadow="2"
     inkscape:window-width="1920"
     inkscape:window-height="1017"
     id="namedview16"
     showgrid="false"
     inkscape:zoom="4.9166667"
     inkscape:cx="-13.525424"
     inkscape:cy="24"
     inkscape:window-x="-8"
     inkscape:window-y="-8"
     inkscape:window-maximized="1"
     inkscape:current-layer="svg14" />
  <g
     id="g4">
    <rect
       fill="none"
       height="24"
       width="24"
       id="rect2" />
  </g>
  <g
     id="g12"
     style="fill:#ff6600"
     transform="matrix(0.57275649,-0.57275649,0.57275649,0.57275649,-1.7461559,12)">
    <g
       id="g10"
       style="fill:#ff6600">
      <g
         id="g8"
         style="fill:#ff6600">
        <path
           d="M 15,3 17.3,5.3 14.41,8.17 15.83,9.59 18.7,6.7 21,9 V 3 Z M 3,9 5.3,6.7 8.17,9.59 9.59,8.17 6.7,5.3 9,3 H 3 Z M 9,21 6.7,18.7 9.59,15.83 8.17,14.41 5.3,17.3 3,15 v 6 z M 21,15 18.7,17.3 15.83,14.41 14.41,15.83 17.3,18.7 15,21 h 6 z"
           id="path6"
           style="fill:#ff6600"
           inkscape:connector-curvature="0" />
      </g>
    </g>
  </g>
</svg>
