<?xml version="1.0" encoding="UTF-8" standalone="no"?>
<svg
   enable-background="new 0 0 24 24"
   viewBox="0 0 24 24"
   fill="black"
   width="48px"
   height="48px"
   version="1.1"
   id="svg14"
   sodipodi:docname="fit_window.svg"
   inkscape:version="1.2.1 (9c6d41e410, 2022-07-14)"
   xmlns:inkscape="http://www.inkscape.org/namespaces/inkscape"
   xmlns:sodipodi="http://sodipodi.sourceforge.net/DTD/sodipodi-0.dtd"
   xmlns="http://www.w3.org/2000/svg"
   xmlns:svg="http://www.w3.org/2000/svg">
  <defs
     id="defs18" />
  <sodipodi:namedview
     id="namedview16"
     pagecolor="#ffffff"
     bordercolor="#000000"
     borderopacity="0.25"
     inkscape:showpageshadow="2"
     inkscape:pageopacity="0.0"
     inkscape:pagecheckerboard="0"
     inkscape:deskcolor="#d1d1d1"
     showgrid="false"
     inkscape:zoom="17.4375"
     inkscape:cx="20.759857"
     inkscape:cy="24.028674"
     inkscape:window-width="1920"
     inkscape:window-height="1017"
     inkscape:window-x="-8"
     inkscape:window-y="-8"
     inkscape:window-maximized="1"
     inkscape:current-layer="g10" />
  <g
     id="g4">
    <rect
       fill="none"
       height="24"
       width="24"
       id="rect2" />
  </g>
  <g
     id="g12">
    <g
       id="g10">
      <g
         id="g8"
         transform="matrix(0.77777778,0,0,0.77777778,2.6666667,2.6666667)">
        <path
           d="M 15,3 17.3,5.3 14.41,8.17 15.83,9.59 18.7,6.7 21,9 V 3 Z M 3,9 5.3,6.7 8.17,9.59 9.59,8.17 6.7,5.3 9,3 H 3 Z M 9,21 6.7,18.7 9.59,15.83 8.17,14.41 5.3,17.3 3,15 v 6 z M 21,15 18.7,17.3 15.83,14.41 14.41,15.83 17.3,18.7 15,21 h 6 z"
           id="path6" />
      </g>
    </g>
  </g>
</svg>
