<?xml version="1.0" encoding="UTF-8" standalone="no"?>
<svg
   height="24px"
   viewBox="0 -960 960 960"
   width="24px"
   fill="#5f6368"
   version="1.1"
   id="svg4"
   sodipodi:docname="globe.svg"
   inkscape:version="1.2.1 (9c6d41e410, 2022-07-14)"
   xmlns:inkscape="http://www.inkscape.org/namespaces/inkscape"
   xmlns:sodipodi="http://sodipodi.sourceforge.net/DTD/sodipodi-0.dtd"
   xmlns="http://www.w3.org/2000/svg"
   xmlns:svg="http://www.w3.org/2000/svg">
  <defs
     id="defs8" />
  <sodipodi:namedview
     id="namedview6"
     pagecolor="#ffffff"
     bordercolor="#000000"
     borderopacity="0.25"
     inkscape:showpageshadow="2"
     inkscape:pageopacity="0.0"
     inkscape:pagecheckerboard="0"
     inkscape:deskcolor="#d1d1d1"
     showgrid="false"
     inkscape:zoom="34.875"
     inkscape:cx="10.379928"
     inkscape:cy="12.014337"
     inkscape:window-width="1920"
     inkscape:window-height="1017"
     inkscape:window-x="-8"
     inkscape:window-y="-8"
     inkscape:window-maximized="1"
     inkscape:current-layer="svg4" />
  <path
     d="m 480,-160 q -66.4,0 -124.8,-25.2 -58.4,-25.2 -101.6,-68.4 -43.2,-43.2 -68.4,-101.6 Q 160,-413.6 160,-480 q 0,-66.4 25.2,-124.8 25.2,-58.4 68.4,-101.6 43.2,-43.2 101.6,-68.4 58.4,-25.2 124.8,-25.2 66.4,0 124.8,25.2 58.4,25.2 101.6,68.4 43.2,43.2 68.4,101.6 25.2,58.4 25.2,124.8 0,66.4 -25.2,124.8 -25.2,58.4 -68.4,101.6 -43.2,43.2 -101.6,68.4 Q 546.4,-160 480,-160 Z m -32,-65.6 V -288 q -26.4,0 -45.2,-18.8 Q 384,-325.6 384,-352 v -32 L 230.4,-537.6 q -2.4,14.4 -4.4,28.8 -2,14.4 -2,28.8 0,96.8 63.6,169.6 63.6,72.8 160.4,84.8 z m 220.8,-81.6 q 16,-17.6 28.8,-38 12.8,-20.4 21.2,-42.4 8.4,-22 12.8,-45.2 4.4,-23.2 4.4,-47.2 0,-78.4 -43.6,-143.2 Q 648.8,-688 576,-716.8 v 12.8 q 0,26.4 -18.8,45.2 -18.8,18.8 -45.2,18.8 h -64 v 64 q 0,13.6 -9.2,22.8 -9.2,9.2 -22.8,9.2 h -64 v 64 h 192 q 13.6,0 22.8,9.2 9.2,9.2 9.2,22.8 v 96 h 32 q 20.8,0 37.6,12.4 16.8,12.4 23.2,32.4 z"
     id="path2"
     style="fill:#000000;stroke-width:0.8" />
</svg>
