<?xml version="1.0" encoding="UTF-8" standalone="no"?>
<svg
   xmlns:dc="http://purl.org/dc/elements/1.1/"
   xmlns:cc="http://creativecommons.org/ns#"
   xmlns:rdf="http://www.w3.org/1999/02/22-rdf-syntax-ns#"
   xmlns:svg="http://www.w3.org/2000/svg"
   xmlns="http://www.w3.org/2000/svg"
   xmlns:sodipodi="http://sodipodi.sourceforge.net/DTD/sodipodi-0.dtd"
   xmlns:inkscape="http://www.inkscape.org/namespaces/inkscape"
   viewBox="0 0 24 24"
   fill="black"
   width="18px"
   height="18px"
   version="1.1"
   id="svg6"
   sodipodi:docname="satellite.svg"
   inkscape:version="0.92.1 r15371">
  <metadata
     id="metadata12">
    <rdf:RDF>
      <cc:Work
         rdf:about="">
        <dc:format>image/svg+xml</dc:format>
        <dc:type
           rdf:resource="http://purl.org/dc/dcmitype/StillImage" />
      </cc:Work>
    </rdf:RDF>
  </metadata>
  <defs
     id="defs10" />
  <sodipodi:namedview
     pagecolor="#ffffff"
     bordercolor="#666666"
     borderopacity="1"
     objecttolerance="10"
     gridtolerance="10"
     guidetolerance="10"
     inkscape:pageopacity="0"
     inkscape:pageshadow="2"
     inkscape:window-width="1405"
     inkscape:window-height="1008"
     id="namedview8"
     showgrid="false"
     inkscape:zoom="13.111111"
     inkscape:cx="-5.0720341"
     inkscape:cy="-6.0254235"
     inkscape:window-x="132"
     inkscape:window-y="10"
     inkscape:window-maximized="0"
     inkscape:current-layer="svg6"
     inkscape:snap-text-baseline="false" />
  <path
     d="M0 0h24v24H0z"
     fill="none"
     id="path2" />
  <path
     style="opacity:0.95999995;fill:#000000;fill-opacity:1;stroke-width:5.03936911;stroke-miterlimit:4;stroke-dasharray:none"
     d="m 3.4452098,20.278465 c 0.097381,-0.132713 1.1173284,-1.426332 2.2665504,-2.874699 1.664883,-2.098251 2.1192091,-2.594908 2.2357195,-2.444033 0.5878915,0.761298 3.1189753,3.697838 3.1828873,3.692756 0.04389,-0.0035 1.085595,-1.28953 2.314909,-2.857866 1.229312,-1.568338 2.273567,-2.851521 2.320566,-2.851521 0.07295,0 5.432254,6.939217 5.723309,7.410516 0.08169,0.132277 -1.765354,0.166156 -9.059193,0.166156 -8.8259026,0 -9.1553128,-0.0089 -8.9847482,-0.241309 z"
     id="path4489"
     inkscape:connector-curvature="0" />
  <path
     style="opacity:0.95999995;fill:#000000;fill-opacity:1;stroke-width:5.03936911;stroke-miterlimit:4;stroke-dasharray:none"
     d="m 3.1480221,11.43283 v -1.281134 l 0.4403691,-0.0016 C 4.7249016,10.146047 6.4683288,9.4375496 7.5081191,8.5572134 8.7481344,7.5073565 9.7874303,5.5005888 9.7874303,4.1561122 V 3.6384175 h 1.2872317 1.287233 v 0.4722252 c 0,0.8521932 -0.421216,2.3656455 -0.975091,3.5035564 C 10.946915,8.5179285 10.618261,8.9534402 9.67143,9.8873016 7.9776952,11.557835 6.2334954,12.403855 4.0256847,12.625754 l -0.8776626,0.08821 z"
     id="path4491"
     inkscape:connector-curvature="0" />
  <path
     style="opacity:0.95999995;fill:#000000;fill-opacity:1;stroke-width:5.03936911;stroke-miterlimit:4;stroke-dasharray:none"
     d="M 3.1480221,5.5624933 V 3.6384175 H 5.1278251 7.107628 L 7.0176857,4.1368828 C 6.7072848,5.8571234 5.4059023,7.0996586 3.5883912,7.4111071 l -0.4403691,0.07546 z"
     id="path4493"
     inkscape:connector-curvature="0" />
</svg>
